# xmcd
#
# Track frame offsets:
#	150
#	15455
#	32868
#	52208
#	72703
#	90354
#	131240
#	151791
#	170447
#	193041
#	211243
#	226943
#
# Disc length: 3192 seconds
#
# Revision: 1
# Processed by: cddbd v1.5.2PL0 Copyright (c) Steve Scherf et al.
# Submitted via: audiograbber 1.83.01
#
DISCID=a20c760c
DTITLE=Momo (Monique Wilson) - What's Yo Situation?
DYEAR=2010
DGENRE=R&B
TTITLE0=Steppin' Wit My Hot Team
TTITLE1=Smile
TTITLE2=Feel The Heat Drop
TTITLE3=Hard To Tell You
TTITLE4=Sweet Memories
TTITLE5=Dazed and Confused - Baby Don't Worry About A Thang
TTITLE6=Working Together Is A Success
TTITLE7=Everything
TTITLE8=Thank You Lord (A Capepella)
TTITLE9=Going Through It
TTITLE10=Good Morning Heartache
TTITLE11=The World Keeps On Turning (Hidden Track)
EXTD=
EXTT0=
EXTT1=
EXTT2=
EXTT3=
EXTT4=
EXTT5=
EXTT6=
EXTT7=
EXTT8=
EXTT9=
EXTT10=
EXTT11=
PLAYORDER=
